<?xml version="1.0" encoding="utf-8"?>
<!-- Generator: Adobe Illustrator 24.0.1, SVG Export Plug-In . SVG Version: 6.00 Build 0)  -->
<svg version="1.1" id="Calque_1" xmlns="http://www.w3.org/2000/svg" xmlns:xlink="http://www.w3.org/1999/xlink" x="0px" y="0px"
	 viewBox="0 0 690.22 268.42" style="enable-background:new 0 0 690.22 268.42;" xml:space="preserve">
<style type="text/css">
	.st0{fill:#3578B6;}
	.st1{opacity:0.62;fill:#297CC1;}
	.st2{opacity:0.42;fill:#73A2C6;}
	.st3{opacity:0.76;fill:#45709B;stroke:#FCFCFA;stroke-width:3;stroke-miterlimit:10;}
	.st4{fill:#0C2C3F;stroke:#96B3BC;stroke-width:2;stroke-miterlimit:10;}
	.st5{fill:#091114;stroke:#0C0C0C;stroke-width:2;stroke-miterlimit:10;}
	.st6{opacity:0.79;fill:#49697A;}
	.st7{opacity:0.81;fill:#49697A;}
	.st8{fill:#FFFFFF;}
	.st9{fill:#77A1B2;}
</style>
<path class="st0" d="M14.65,109.74L181.04,23.1l163.47,86.64l-76.38,39.84l0.97,55.02c-11.62,10.25-42.66,34.71-86.6,35.41
	c-46.26,0.74-79.02-25.3-90.49-35.41c-0.32-18.34-0.65-36.68-0.97-55.02l-33.08-15.81v54.39c0.54,0.51,1.74,1.78,2.43,4.03
	c0.55,1.77,0.54,3.35,0.49,4.19c0,18.55,0,37.1,0,55.65c-0.16,0.32-3.04,5.86-8.27,5.69c-4.92-0.16-7.56-5.25-7.78-5.69
	c-0.32-18.76-0.65-37.52-0.97-56.28c0.02-0.58,0.14-2.39,1.22-4.03c1.2-1.83,2.76-2.21,3.16-2.29c-0.32-20.66-0.65-41.32-0.97-61.98
	L14.65,109.74z"/>
<path class="st1" d="M14.65,103.54L181.04,16.9l163.47,86.64l-76.38,39.84l0.97,55.02c-11.62,10.25-42.66,34.71-86.6,35.41
	c-46.26,0.74-79.02-25.3-90.49-35.41c-0.32-18.34-0.65-36.68-0.97-55.02l-33.08-15.81L57.8,182.3c0.54,0.51,1.88,1.43,2.58,3.68
	c0.55,1.77,0.54,3.35,0.49,4.19c0,18.55,0,37.1,0,55.65c-0.16,0.32-3.04,5.86-8.27,5.69c-4.92-0.16-7.56-5.25-7.78-5.69
	c-0.32-18.76-0.65-37.52-0.97-56.28c0.02-0.58,0.14-2.39,1.22-4.03c1.2-1.83,2.61-2.92,3.02-3c-0.32-20.66-0.51-40.61-0.83-61.27
	L14.65,103.54z"/>
<path class="st2" d="M14.65,99.05l166.39-86.64l163.47,86.64l-76.38,39.84l0.97,55.02c-11.62,10.25-42.66,34.71-86.6,35.41
	c-46.26,0.74-79.02-25.3-90.49-35.41c-0.32-18.34-0.65-36.68-0.97-55.02l-33.08-15.81v54.39c0.54,0.51,1.74,1.78,2.43,4.03
	c0.55,1.77,0.54,3.35,0.49,4.19c0,18.55,0,37.1,0,55.65c-0.16,0.32-3.04,5.86-8.27,5.69c-4.92-0.16-7.56-5.25-7.78-5.69
	c-0.32-18.76-0.65-37.52-0.97-56.28c0.02-0.58,0.14-2.39,1.22-4.03c1.2-1.83,2.73-3.65,3.14-3.73c-0.32-20.66-0.63-39.88-0.95-60.54
	L14.65,99.05z"/>
<circle class="st3" cx="179.59" cy="114.03" r="51.97"/>
<ellipse class="st4" cx="179.59" cy="114.03" rx="33.05" ry="31.73"/>
<circle class="st5" cx="179.59" cy="114.03" r="19.47"/>
<circle cx="179.58" cy="114.61" r="8.53"/>
<g>
	<g>
		<path class="st0" d="M393.12,200.38l-17.66-53.92h7.57l8.38,26.58c2.31,7.27,4.31,13.84,5.77,20.12h0.19
			c1.51-6.23,3.72-13.02,6.14-20.03l9.12-26.67h7.45l-19.26,53.92H393.12z"/>
		<path class="st0" d="M429.53,150.75c0.01,2.39-1.68,4.37-4.48,4.37c-2.55,0-4.25-1.98-4.25-4.37c-0.01-2.42,1.8-4.38,4.38-4.38
			C427.81,146.38,429.51,148.3,429.53,150.75z M421.67,200.38v-38.69h7v38.69H421.67z"/>
		<path class="st0" d="M435.39,193.22c2.12,1.32,5.82,2.76,9.33,2.76c5.14,0,7.52-2.53,7.52-5.76c0-3.38-2.05-5.16-7.19-7.08
			c-6.99-2.53-10.3-6.34-10.28-10.97c0-6.23,5.06-11.34,13.38-11.34c3.94,0,7.33,1.07,9.48,2.38l-1.75,5.12
			c-1.49-0.93-4.32-2.28-7.94-2.28c-4.15,0-6.41,2.39-6.41,5.31c0,3.2,2.27,4.63,7.35,6.6c6.67,2.48,10.13,5.85,10.15,11.63
			c0,6.86-5.33,11.66-14.47,11.66c-4.24,0-8.15-1.1-10.87-2.7L435.39,193.22z"/>
		<path class="st0" d="M471.93,150.75c0.01,2.39-1.68,4.37-4.48,4.37c-2.55,0-4.25-1.98-4.25-4.37c-0.01-2.42,1.8-4.38,4.38-4.38
			C470.21,146.38,471.91,148.3,471.93,150.75z M464.06,200.38v-38.69h7v38.69H464.06z"/>
		<path class="st0" d="M513.8,180.67c0,14.33-9.94,20.6-19.24,20.6c-10.49,0-18.6-7.65-18.6-19.93c0-12.95,8.51-20.52,19.21-20.52
			C506.3,160.81,513.8,168.88,513.8,180.67z M483.13,181.12c0,8.49,4.86,14.88,11.73,14.88c6.75,0,11.79-6.3,11.79-15.08
			c0-6.54-3.3-14.82-11.66-14.82C486.72,166.08,483.13,173.78,483.13,181.12z"/>
		<path class="st0" d="M556.6,198.65c-2.52,1.27-7.68,2.57-14.25,2.57c-15.19,0-26.58-9.61-26.58-27.31
			c0-16.92,11.41-28.29,28.15-28.29c6.66,0,10.96,1.41,12.79,2.37l-1.71,5.67c-2.62-1.25-6.37-2.22-10.85-2.22
			c-12.66,0-21.03,8.09-21.03,22.25c0,13.19,7.6,21.62,20.66,21.62c4.28,0,8.59-0.86,11.42-2.21L556.6,198.65z"/>
		<path class="st0" d="M596.12,180.67c0,14.33-9.94,20.6-19.24,20.6c-10.49,0-18.6-7.65-18.6-19.93c0-12.95,8.51-20.52,19.21-20.52
			C588.62,160.81,596.12,168.88,596.12,180.67z M565.45,181.12c0,8.49,4.86,14.88,11.73,14.88c6.75,0,11.79-6.3,11.79-15.08
			c0-6.54-3.3-14.82-11.66-14.82C569.04,166.08,565.45,173.78,565.45,181.12z"/>
	</g>
</g>
<path class="st6" d="M162.39,105.77c-0.52,0.84-1.42,2.57-1.25,4.78c0.05,0.61,0.17,1.16,0.31,1.63c-1.91-0.05-3.82-0.1-5.73-0.14
	c-0.22-0.71-0.53-2.02-0.29-3.65c0.28-1.95,1.19-3.29,1.65-3.89C158.85,104.93,160.62,105.35,162.39,105.77z"/>
<path class="st7" d="M171.64,97.46c-1.06,0.27-3.27,0.97-5.3,2.91c-1.6,1.53-2.41,3.16-2.8,4.13c-1.93-1.66-3.85-3.33-5.78-4.99
	c0.33-1.06,1.08-2.99,2.83-4.78c2.52-2.59,5.5-3.25,6.59-3.43C168.66,93.35,170.15,95.41,171.64,97.46z"/>
<path class="st8" d="M156.45,109.9"/>
<circle class="st9" cx="220.64" cy="103.69" r="3.31"/>
<circle class="st9" cx="220.64" cy="114.03" r="3.31"/>
<circle class="st9" cx="220.64" cy="124.38" r="3.31"/>
<rect x="272.44" y="198.52" class="st0" width="406.44" height="2.96"/>
</svg>
