<?xml version="1.0" encoding="utf-8"?>
<!-- Generator: Adobe Illustrator 24.0.1, SVG Export Plug-In . SVG Version: 6.00 Build 0)  -->
<svg version="1.1" id="Calque_1" xmlns="http://www.w3.org/2000/svg" xmlns:xlink="http://www.w3.org/1999/xlink" x="0px" y="0px"
	 viewBox="0 0 355.11 330.67" style="enable-background:new 0 0 355.11 330.67;" xml:space="preserve">
<style type="text/css">
	.st0{fill:#3578B6;}
	.st1{opacity:0.62;fill:#297CC1;}
	.st2{opacity:0.42;fill:#73A2C6;}
	.st3{opacity:0.76;fill:#45709B;stroke:#FCFCFA;stroke-width:3;stroke-miterlimit:10;}
	.st4{fill:#0C2C3F;stroke:#96B3BC;stroke-width:2;stroke-miterlimit:10;}
	.st5{fill:#091114;stroke:#0C0C0C;stroke-width:2;stroke-miterlimit:10;}
	.st6{opacity:0.79;fill:#49697A;}
	.st7{opacity:0.81;fill:#49697A;}
	.st8{fill:#FFFFFF;}
	.st9{fill:#77A1B2;}
</style>
<path class="st0" d="M14.65,109.74L181.04,23.1l163.47,86.64l-76.38,39.84l0.97,55.02c-11.62,10.25-42.66,34.71-86.6,35.41
	c-46.26,0.74-79.02-25.3-90.49-35.41c-0.32-18.34-0.65-36.68-0.97-55.02l-33.08-15.81v54.39c0.54,0.51,1.74,1.78,2.43,4.03
	c0.55,1.77,0.54,3.35,0.49,4.19c0,18.55,0,37.1,0,55.65c-0.16,0.32-3.04,5.86-8.27,5.69c-4.92-0.16-7.56-5.25-7.78-5.69
	c-0.32-18.76-0.65-37.52-0.97-56.28c0.02-0.58,0.14-2.39,1.22-4.03c1.2-1.83,2.76-2.21,3.16-2.29c-0.32-20.66-0.65-41.32-0.97-61.98
	L14.65,109.74z"/>
<path class="st1" d="M14.65,103.54L181.04,16.9l163.47,86.64l-76.38,39.84l0.97,55.02c-11.62,10.25-42.66,34.71-86.6,35.41
	c-46.26,0.74-79.02-25.3-90.49-35.41c-0.32-18.34-0.65-36.68-0.97-55.02l-33.08-15.81L57.8,182.3c0.54,0.51,1.88,1.43,2.58,3.68
	c0.55,1.77,0.54,3.35,0.49,4.19c0,18.55,0,37.1,0,55.65c-0.16,0.32-3.04,5.86-8.27,5.69c-4.92-0.16-7.56-5.25-7.78-5.69
	c-0.32-18.76-0.65-37.52-0.97-56.28c0.02-0.58,0.14-2.39,1.22-4.03c1.2-1.83,2.61-2.92,3.02-3c-0.32-20.66-0.51-40.61-0.83-61.27
	L14.65,103.54z"/>
<path class="st2" d="M14.65,99.05l166.39-86.64l163.47,86.64l-76.38,39.84l0.97,55.02c-11.62,10.25-42.66,34.71-86.6,35.41
	c-46.26,0.74-79.02-25.3-90.49-35.41c-0.32-18.34-0.65-36.68-0.97-55.02l-33.08-15.81v54.39c0.54,0.51,1.74,1.78,2.43,4.03
	c0.55,1.77,0.54,3.35,0.49,4.19c0,18.55,0,37.1,0,55.65c-0.16,0.32-3.04,5.86-8.27,5.69c-4.92-0.16-7.56-5.25-7.78-5.69
	c-0.32-18.76-0.65-37.52-0.97-56.28c0.02-0.58,0.14-2.39,1.22-4.03c1.2-1.83,2.73-3.65,3.14-3.73c-0.32-20.66-0.63-39.88-0.95-60.54
	L14.65,99.05z"/>
<circle class="st3" cx="179.59" cy="114.03" r="51.97"/>
<ellipse class="st4" cx="179.59" cy="114.03" rx="33.05" ry="31.73"/>
<circle class="st5" cx="179.59" cy="114.03" r="19.47"/>
<circle cx="179.58" cy="114.61" r="8.53"/>
<g>
	<g>
		<path class="st0" d="M100.03,308.84l-15.89-48.53h6.81l7.54,23.93c2.08,6.54,3.88,12.46,5.19,18.11h0.17
			c1.36-5.61,3.35-11.72,5.53-18.03l8.21-24h6.7l-17.34,48.53H100.03z"/>
		<path class="st0" d="M132.79,264.17c0.01,2.15-1.51,3.94-4.03,3.94c-2.29,0-3.83-1.78-3.82-3.94c-0.01-2.17,1.62-3.94,3.94-3.94
			C131.24,260.23,132.78,261.96,132.79,264.17z M125.72,308.84v-34.82h6.3v34.82H125.72z"/>
		<path class="st0" d="M138.07,302.39c1.91,1.19,5.24,2.48,8.39,2.48c4.62,0,6.77-2.27,6.77-5.19c0-3.05-1.84-4.64-6.47-6.38
			c-6.29-2.28-9.27-5.7-9.25-9.88c0-5.61,4.56-10.21,12.05-10.21c3.54,0,6.59,0.96,8.53,2.14l-1.57,4.6
			c-1.34-0.84-3.89-2.05-7.14-2.05c-3.74,0-5.77,2.16-5.77,4.78c0,2.88,2.05,4.17,6.61,5.94c6,2.24,9.12,5.26,9.14,10.46
			c0,6.17-4.8,10.49-13.02,10.49c-3.81,0-7.34-0.99-9.79-2.43L138.07,302.39z"/>
		<path class="st0" d="M170.95,264.17c0.01,2.15-1.51,3.94-4.03,3.94c-2.29,0-3.83-1.78-3.82-3.94c-0.01-2.17,1.62-3.94,3.94-3.94
			C169.4,260.23,170.94,261.96,170.95,264.17z M163.88,308.84v-34.82h6.3v34.82H163.88z"/>
		<path class="st0" d="M208.65,291.1c0,12.9-8.95,18.54-17.32,18.54c-9.45,0-16.74-6.88-16.74-17.94c0-11.65,7.66-18.47,17.29-18.47
			C201.89,273.23,208.65,280.49,208.65,291.1z M181.03,291.5c0,7.64,4.38,13.39,10.56,13.39c6.07,0,10.61-5.67,10.61-13.58
			c0-5.89-2.97-13.34-10.5-13.34C184.27,277.97,181.03,284.9,181.03,291.5z"/>
		<path class="st0" d="M247.16,307.29c-2.26,1.14-6.91,2.31-12.83,2.31c-13.67,0-23.92-8.65-23.92-24.58
			c0-15.23,10.27-25.46,25.33-25.46c6,0,9.87,1.27,11.52,2.13l-1.54,5.1c-2.36-1.12-5.73-2-9.76-2c-11.4,0-18.93,7.28-18.93,20.02
			c0,11.87,6.84,19.46,18.6,19.46c3.85,0,7.74-0.78,10.28-1.99L247.16,307.29z"/>
		<path class="st0" d="M282.73,291.1c0,12.9-8.95,18.54-17.32,18.54c-9.45,0-16.74-6.88-16.74-17.94c0-11.65,7.66-18.47,17.29-18.47
			C275.98,273.23,282.73,280.49,282.73,291.1z M255.12,291.5c0,7.64,4.38,13.39,10.56,13.39c6.07,0,10.61-5.67,10.61-13.58
			c0-5.89-2.97-13.34-10.5-13.34C258.35,277.97,255.12,284.9,255.12,291.5z"/>
	</g>
</g>
<path class="st6" d="M162.39,105.77c-0.52,0.84-1.42,2.57-1.25,4.78c0.05,0.61,0.17,1.16,0.31,1.63c-1.91-0.05-3.82-0.1-5.73-0.14
	c-0.22-0.71-0.53-2.02-0.29-3.65c0.28-1.95,1.19-3.29,1.65-3.89C158.85,104.93,160.62,105.35,162.39,105.77z"/>
<path class="st7" d="M171.64,97.46c-1.06,0.27-3.27,0.97-5.3,2.91c-1.6,1.53-2.41,3.16-2.8,4.13c-1.93-1.66-3.85-3.33-5.78-4.99
	c0.33-1.06,1.08-2.99,2.83-4.78c2.52-2.59,5.5-3.25,6.59-3.43C168.66,93.35,170.15,95.41,171.64,97.46z"/>
<path class="st8" d="M156.45,109.9"/>
<circle class="st9" cx="220.64" cy="103.69" r="3.31"/>
<circle class="st9" cx="220.64" cy="114.03" r="3.31"/>
<circle class="st9" cx="220.64" cy="124.38" r="3.31"/>
</svg>
