<?xml version="1.0" encoding="utf-8"?>
<!-- Generator: Adobe Illustrator 24.0.1, SVG Export Plug-In . SVG Version: 6.00 Build 0)  -->
<svg version="1.1" id="Calque_1" xmlns="http://www.w3.org/2000/svg" xmlns:xlink="http://www.w3.org/1999/xlink" x="0px" y="0px"
	 viewBox="0 0 837.78 268.42" style="enable-background:new 0 0 837.78 268.42;" xml:space="preserve">
<style type="text/css">
	.st0{fill:#3578B6;}
	.st1{opacity:0.62;fill:#297CC1;}
	.st2{opacity:0.42;fill:#73A2C6;}
	.st3{opacity:0.76;fill:#45709B;stroke:#FCFCFA;stroke-width:3;stroke-miterlimit:10;}
	.st4{fill:#0C2C3F;stroke:#96B3BC;stroke-width:2;stroke-miterlimit:10;}
	.st5{fill:#091114;stroke:#0C0C0C;stroke-width:2;stroke-miterlimit:10;}
	.st6{opacity:0.79;fill:#49697A;}
	.st7{opacity:0.81;fill:#49697A;}
	.st8{fill:#FFFFFF;}
	.st9{fill:#77A1B2;}
</style>
<path class="st0" d="M14.65,109.74L181.04,23.1l163.47,86.64l-76.38,39.84l0.97,55.02c-11.62,10.25-42.66,34.71-86.6,35.41
	c-46.26,0.74-79.02-25.3-90.49-35.41c-0.32-18.34-0.65-36.68-0.97-55.02l-33.08-15.81v54.39c0.54,0.51,1.74,1.78,2.43,4.03
	c0.55,1.77,0.54,3.35,0.49,4.19c0,18.55,0,37.1,0,55.65c-0.16,0.32-3.04,5.86-8.27,5.69c-4.92-0.16-7.56-5.25-7.78-5.69
	c-0.32-18.76-0.65-37.52-0.97-56.28c0.02-0.58,0.14-2.39,1.22-4.03c1.2-1.83,2.76-2.21,3.16-2.29c-0.32-20.66-0.65-41.32-0.97-61.98
	L14.65,109.74z"/>
<path class="st1" d="M14.65,103.54L181.04,16.9l163.47,86.64l-76.38,39.84l0.97,55.02c-11.62,10.25-42.66,34.71-86.6,35.41
	c-46.26,0.74-79.02-25.3-90.49-35.41c-0.32-18.34-0.65-36.68-0.97-55.02l-33.08-15.81L57.8,182.3c0.54,0.51,1.88,1.43,2.58,3.68
	c0.55,1.77,0.54,3.35,0.49,4.19c0,18.55,0,37.1,0,55.65c-0.16,0.32-3.04,5.86-8.27,5.69c-4.92-0.16-7.56-5.25-7.78-5.69
	c-0.32-18.76-0.65-37.52-0.97-56.28c0.02-0.58,0.14-2.39,1.22-4.03c1.2-1.83,2.61-2.92,3.02-3c-0.32-20.66-0.51-40.61-0.83-61.27
	L14.65,103.54z"/>
<path class="st2" d="M14.65,99.05l166.39-86.64l163.47,86.64l-76.38,39.84l0.97,55.02c-11.62,10.25-42.66,34.71-86.6,35.41
	c-46.26,0.74-79.02-25.3-90.49-35.41c-0.32-18.34-0.65-36.68-0.97-55.02l-33.08-15.81v54.39c0.54,0.51,1.74,1.78,2.43,4.03
	c0.55,1.77,0.54,3.35,0.49,4.19c0,18.55,0,37.1,0,55.65c-0.16,0.32-3.04,5.86-8.27,5.69c-4.92-0.16-7.56-5.25-7.78-5.69
	c-0.32-18.76-0.65-37.52-0.97-56.28c0.02-0.58,0.14-2.39,1.22-4.03c1.2-1.83,2.73-3.65,3.14-3.73c-0.32-20.66-0.63-39.88-0.95-60.54
	L14.65,99.05z"/>
<circle class="st3" cx="179.59" cy="114.03" r="51.97"/>
<ellipse class="st4" cx="179.59" cy="114.03" rx="33.05" ry="31.73"/>
<circle class="st5" cx="179.59" cy="114.03" r="19.47"/>
<circle cx="179.58" cy="114.61" r="8.53"/>
<g>
	<g>
		<path class="st0" d="M408.28,198.69l-22.07-67.4h9.46l10.47,33.23c2.89,9.09,5.39,17.3,7.21,25.15h0.24
			c1.89-7.79,4.65-16.27,7.68-25.04l11.4-33.34h9.31l-24.08,67.4H408.28z"/>
		<path class="st0" d="M453.78,136.65c0.01,2.99-2.1,5.47-5.59,5.47c-3.18,0-5.32-2.47-5.31-5.47c-0.01-3.02,2.25-5.47,5.47-5.47
			C451.63,131.18,453.76,133.58,453.78,136.65z M443.96,198.69v-48.36h8.75v48.36H443.96z"/>
		<path class="st0" d="M461.11,189.73c2.65,1.66,7.28,3.45,11.66,3.45c6.42,0,9.4-3.16,9.4-7.2c0-4.23-2.56-6.45-8.99-8.86
			c-8.74-3.16-12.88-7.92-12.85-13.71c0-7.79,6.33-14.18,16.73-14.18c4.92,0,9.16,1.33,11.85,2.97l-2.19,6.39
			c-1.86-1.17-5.4-2.85-9.92-2.85c-5.19,0-8.01,2.99-8.01,6.64c0,4,2.84,5.79,9.18,8.25c8.34,3.11,12.67,7.31,12.69,14.53
			c0,8.57-6.66,14.57-18.09,14.57c-5.29,0-10.19-1.37-13.59-3.37L461.11,189.73z"/>
		<path class="st0" d="M506.78,136.65c0.01,2.99-2.1,5.47-5.59,5.47c-3.18,0-5.32-2.47-5.31-5.47c-0.01-3.02,2.25-5.47,5.47-5.47
			C504.63,131.18,506.76,133.58,506.78,136.65z M496.96,198.69v-48.36h8.75v48.36H496.96z"/>
		<path class="st0" d="M559.13,174.04c0,17.91-12.43,25.75-24.05,25.75c-13.12,0-23.25-9.56-23.25-24.91
			c0-16.19,10.64-25.65,24.02-25.65C549.75,149.22,559.13,159.31,559.13,174.04z M520.78,174.6c0,10.61,6.08,18.59,14.66,18.59
			c8.43,0,14.74-7.88,14.74-18.86c0-8.18-4.12-18.53-14.58-18.53C525.27,155.81,520.78,165.43,520.78,174.6z"/>
		<path class="st0" d="M612.62,196.53c-3.14,1.58-9.6,3.21-17.82,3.21c-18.99,0-33.22-12.01-33.22-34.14
			c0-21.15,14.26-35.36,35.18-35.36c8.33,0,13.7,1.76,15.99,2.96l-2.14,7.09c-3.27-1.56-7.96-2.78-13.56-2.78
			c-15.83,0-26.29,10.11-26.29,27.81c0,16.49,9.5,27.03,25.83,27.03c5.35,0,10.74-1.08,14.28-2.76L612.62,196.53z"/>
		<path class="st0" d="M662.03,174.04c0,17.91-12.43,25.75-24.05,25.75c-13.12,0-23.25-9.56-23.25-24.91
			c0-16.19,10.64-25.65,24.02-25.65C652.65,149.22,662.03,159.31,662.03,174.04z M623.68,174.6c0,10.61,6.08,18.59,14.66,18.59
			c8.43,0,14.74-7.88,14.74-18.86c0-8.18-4.12-18.53-14.58-18.53C628.17,155.81,623.68,165.43,623.68,174.6z"/>
	</g>
</g>
<path class="st6" d="M162.39,105.77c-0.52,0.84-1.42,2.57-1.25,4.78c0.05,0.61,0.17,1.16,0.31,1.63c-1.91-0.05-3.82-0.1-5.73-0.14
	c-0.22-0.71-0.53-2.02-0.29-3.65c0.28-1.95,1.19-3.29,1.65-3.89C158.85,104.93,160.62,105.35,162.39,105.77z"/>
<path class="st7" d="M171.64,97.46c-1.06,0.27-3.27,0.97-5.3,2.91c-1.6,1.53-2.41,3.16-2.8,4.13c-1.93-1.66-3.85-3.33-5.78-4.99
	c0.33-1.06,1.08-2.99,2.83-4.78c2.52-2.59,5.5-3.25,6.59-3.43C168.66,93.35,170.15,95.41,171.64,97.46z"/>
<path class="st8" d="M156.45,109.9"/>
<circle class="st9" cx="220.64" cy="103.69" r="3.31"/>
<circle class="st9" cx="220.64" cy="114.03" r="3.31"/>
<circle class="st9" cx="220.64" cy="124.38" r="3.31"/>
<rect x="312.44" y="198.52" class="st0" width="406.44" height="2.96"/>
</svg>
